<?xml version="1.0" encoding="utf-8"?>
<!-- Generator: Adobe Illustrator 25.1.0, SVG Export Plug-In . SVG Version: 6.00 Build 0)  -->
<svg version="1.1" id="Ebene_2" xmlns="http://www.w3.org/2000/svg" xmlns:xlink="http://www.w3.org/1999/xlink" x="0px" y="0px"
	 viewBox="0 0 1000 1000" style="enable-background:new 0 0 1000 1000;" xml:space="preserve">
<style type="text/css">
	.st0{fill:none;stroke:#000000;stroke-width:17.7778;stroke-miterlimit:10;}
	.st1{fill:#FFFFFF;stroke:#000000;stroke-width:17.7778;stroke-miterlimit:10;}
</style>
<g>
	<circle class="st0" cx="500" cy="758.4" r="141.6"/>
	<line class="st0" x1="108.3" y1="715.9" x2="891.7" y2="715.9"/>
	<path class="st0" d="M861.5,535.9c-1.6,0-2.9-1.3-2.9-2.9c-0.2-31.3-1.5-308.3,0-364.3c1-39.2,11.6-56.6,18.7-63.9
		c1.8-1.8,0.4-4.9-2.1-4.9l-98.2,0c-2.5,0-3.8,2.8-2.2,4.7c13.8,16.5,17.4,63.2,17.6,65.2c0,0.1,0,0.1,0,0.2V533
		c0,1.6-1.3,2.9-2.9,2.9h-49.5c-1.6,0-2.9-1.3-2.9-2.9l0-94.7c0-0.7-0.3-1.5-0.8-2c-33.3-36.8-75-13.7-75,19.1v80.6h-3.6V362.4
		c0-1.6-1.3-2.9-2.9-2.9h-48c-1.6,0-2.9,1.3-2.9,2.9V533c0,1.6-1.3,2.9-2.9,2.9H442.7c-1.6,0-2.9-1.3-2.9-2.9v-53.4
		c0-1.6-1.3-2.9-2.9-2.9H247.5c-1.6,0-2.9,1.3-2.9,2.9V533c0,1.6-1.3,2.9-2.9,2.9H111.2c-1.6,0-2.9,1.3-2.9,2.9v260.7
		c0,1.6,1.3,2.9,2.9,2.9h777.7c1.6,0,2.9-1.3,2.9-2.9V538.8c0-1.6-1.3-2.9-2.9-2.9H861.5z"/>
	<circle class="st0" cx="799.7" cy="807.9" r="92.1"/>
	<circle class="st0" cx="200.3" cy="807.9" r="92.1"/>
	<line class="st1" x1="799.7" y1="807.9" x2="799.7" y2="715.9"/>
	<line class="st1" x1="200.3" y1="807.9" x2="200.3" y2="715.9"/>
	<line class="st1" x1="500" y1="758.4" x2="500" y2="715.9"/>
</g>
</svg>
