<?xml version="1.0" encoding="utf-8"?>
<!-- Generator: Adobe Illustrator 25.1.0, SVG Export Plug-In . SVG Version: 6.00 Build 0)  -->
<svg version="1.1" id="Ebene_1" xmlns="http://www.w3.org/2000/svg" xmlns:xlink="http://www.w3.org/1999/xlink" x="0px" y="0px"
	 viewBox="0 0 1000 1000" style="enable-background:new 0 0 1000 1000;" xml:space="preserve">
<style type="text/css">
	.st0{fill:none;stroke:#000000;stroke-width:20;stroke-miterlimit:10;}
	.st1{fill:#FFFFFF;stroke:#000000;stroke-width:20;stroke-miterlimit:10;}
</style>
<path class="st0" d="M253.7,205.5c30.5,357.8,19,485.1,0,529.7c-4.1,9.5-24.7,53.4-6.8,75c10.3,12.4,29,12.4,37.5,12.5
	c104.7,0.9,151.3,23.8,312.6,0c16-2.4,39.9-6.2,46.8-22.1c8.3-19.2-15.9-38.5-11.6-80.2c1.5-14.8,5.6-22.3,10.3-27.3
	c11-11.8,27.9-12.1,34.1-12.5c34.4-2.5,65.3-32.2,90.9-56.8c0,0,71.6-68.8,40.9-264.8c-1.8-11.5-5.4-25.1-15.9-36.4
	c-9.3-10-20.2-13.9-31.8-18.2c-9.2-3.4-26.1-9.3-47.7-8c-22.6,1.4-25,9.3-51.1,10.2c-23.1,0.8-30.2-5-33-8
	c-6.1-6.5-6.6-15.1-6.8-20.5c-1.5-33.1-0.5-68,0-83L253.7,205.5z"/>
<path class="st1" d="M232.6,176.3c-13.8,4.5-18.9,8.8-22,12.6c-8,9.6-8.3,21.6-8.4,26.2c-2.1,74.2-34.7,139.1,5.2,202.5
	c8.5,13.4,23.5,37.2,49.3,39.9c21.4,2.2,45.6-10.6,53.5-29.4c7.8-18.4-6.6-27.2-5.2-60.8c0.8-19.3,6.2-32.8,15.7-56.6
	c11-27.6,17.6-44.1,33.6-59.8c24.7-24.4,54.9-30.2,62.9-31.5c40.3-6.5,50,14.6,103.8,21c43.7,5.2,102.3-0.9,110.1-25.2
	c4-12.4-5.9-27.9-13.6-39.9c0,0-12.5-19.4-31.5-30.4c-17.4-10.1-39.1-11.6-110.1,6.3c-93.2,23.5-110.3,39.8-144.8,29.4
	c-8.6-2.6-24.1-8.7-47.2-10.5C279.1,169.6,257.5,168.1,232.6,176.3z"/>
<path class="st0" d="M632.2,373.8c2.4,24,10.7,192.6,0,233c-0.8,3-3.7,12.9,1.2,18.2c2.8,3.1,8.4,4.5,19.3,2.3
	c37.8-7.8,64.1-34.9,64.1-34.9s64.9-66.8,47.3-192.4c-1.7-12.3-5.2-24.5-14.8-34.1c-8.8-8.8-18.8-11.5-30.7-14.8
	c-9.9-2.7-27.6-1.8-62.5,0c-7.5,0.4-15.7,0.9-20.5,6.8C631,363.5,631.9,371.2,632.2,373.8z"/>
</svg>
