<?xml version="1.0" encoding="utf-8"?>
<!-- Generator: Adobe Illustrator 25.1.0, SVG Export Plug-In . SVG Version: 6.00 Build 0)  -->
<svg version="1.1" id="Ebene_1" xmlns="http://www.w3.org/2000/svg" xmlns:xlink="http://www.w3.org/1999/xlink" x="0px" y="0px"
	 viewBox="0 0 1000 1000" style="enable-background:new 0 0 1000 1000;" xml:space="preserve">
<style type="text/css">
	.st0{fill:none;stroke:#000000;stroke-width:20;stroke-miterlimit:10;}
	.st1{fill:#FFFFFF;stroke:#000000;stroke-width:20;stroke-miterlimit:10;}
</style>
<path class="st0" d="M241.4,671.6c-13.8,15.4-31.8,39-46.2,71.3c-12.9,28.8-18.6,55-21.3,74.2c-0.8,19.7,7.6,37.7,22.4,46.8
	c19,11.6,43.5,5.3,57.4-6.1c20.1-16.5,12.6-39.2,30.7-82.5c8.8-21,19.5-36.8,27.6-47.4c-11.2,19.1-24.6,47.4-31.3,83.6
	c-3.4,18.2-4.4,34.8-4.2,48.9c1,3.2,9.3,26.8,34.6,36.5c13.2,5.1,35.5,8.1,49.6-3.7c18.2-15.3,5.3-41.2,19.4-90.1
	c5-17.5,11.6-31.2,16.5-40.3c-7.6,13.1-27.3,51-18.3,97.2c2.9,15,8.2,27.4,13.4,36.9c2.1,3.6,16.1,26.9,44.7,32.1
	c20.9,3.8,48.1-2.3,58.6-20.1c11-18.7-4.9-35.9-5.6-76c-0.5-26,5.7-47.3,10.8-60.8c-29.5,2.2-87.3,2.6-151.9-25.2
	C295.6,724,260.7,692.1,241.4,671.6z"/>
<path class="st0" d="M453.2,235.2c1.7-20.6,6.4-49.9,19.8-82.6c12-29.2,27-51.4,39.1-66.6c13.7-14.1,32.6-20.5,49.4-15.9
	c21.5,5.8,33.8,27.9,35.1,45.8c1.9,26-19.8,36.1-38.6,79.1c-9.1,20.8-13.3,39.5-15.4,52.6c6.1-21.3,17.4-50.4,39-80.2
	c10.9-15,22.2-27.1,32.5-36.8c3-1.4,25.8-11.7,50.3-0.1c12.8,6.1,30.3,20.2,31.4,38.5c1.4,23.8-26.2,32.2-52,76.1
	c-9.2,15.7-14.7,29.9-17.9,39.7c4.2-14.6,18.1-54.9,57.8-80.2c12.9-8.2,25.5-12.9,36-15.7c4-1,30.6-6.8,54.1,10.3
	c17.1,12.5,31.5,36.4,25.8,56.3c-6,20.8-29.4,21.2-59,48.3c-19.2,17.6-30.4,36.7-36.7,49.7c-18.7-22.9-58.2-65.1-122.9-92.7
	C528.5,238.4,481.3,235,453.2,235.2z"/>
<circle class="st1" cx="500" cy="500" r="323.1"/>
<path class="st1" d="M301.3,342.5c7-8.3,57.1,21.1,91.1,46.6c38.6,28.9,65.2,59.5,82.2,81.9c0.4,0.5,1.2,0.5,1.6,0
	c17.2-25.8,38.3-65.4,43.8-116.3c5-46.4-5-82.8,3-85c7.9-2.3,29.6,30.5,35.1,65.1c10.1,62.8-15.6,120.9-32.8,140.4
	c-0.5,0.6-0.2,1.5,0.5,1.7c25.4,5.8,43.7,8.3,89.3,9.5c105.3,2.6,181.2-26.1,182.2-22.3c1,3.6-65,30.3-151.9,46.6
	c-65.1,12.2-120.3,14.4-158.4,14.2c-0.7,0-1.2,0.7-0.9,1.4c13.4,30.6,35.6,73,72.3,116c46.1,54,91,80.9,87.1,87.1
	c-4,6.2-55.3-12.6-99.2-46.6c-57.1-44.1-85-100.7-98.8-136.6c-0.2-0.6-0.9-0.8-1.4-0.5c-18.5,11-46.2,25-82,33.8
	c-52.5,13-121,14.6-125.5-1.9c-4.6-16.6,56.6-48.3,93.1-62.9c40.7-16.3,77.2-22,102.6-24.1c0.9-0.1,1.2-1.3,0.5-1.8
	c-19.3-14.1-46.2-35.5-74.8-65.2C354.9,418.2,292.6,352.9,301.3,342.5z"/>
</svg>
