<?xml version="1.0" encoding="utf-8"?>
<!-- Generator: Adobe Illustrator 25.1.0, SVG Export Plug-In . SVG Version: 6.00 Build 0)  -->
<svg version="1.1" id="Ebene_1" xmlns="http://www.w3.org/2000/svg" xmlns:xlink="http://www.w3.org/1999/xlink" x="0px" y="0px"
	 viewBox="0 0 1000 1000" style="enable-background:new 0 0 1000 1000;" xml:space="preserve">
<style type="text/css">
	.st0{fill:#FFFFFF;stroke:#000000;stroke-width:20;stroke-miterlimit:10;}
</style>
<path class="st0" d="M494.2,296.3c-3.8-10.4-39.4-102.3-129.5-127c-88.4-24.2-192.9,26.3-240.3,127c-8.1,21.9-17.6,55.3-16.3,95.9
	c3.5,109.6,82.9,187.6,182.1,282.3c46.8,44.7,115.8,103.8,209.2,162.1c130-90.1,222.9-176.9,284.9-241.5
	c55.6-58,96.7-109.1,105.8-181.8c6.1-48.6-4.2-90.1-13.7-117c-39.9-91.2-132.6-143.9-222.6-130.4
	C542.7,182.6,496.3,291.1,494.2,296.3z"/>
</svg>
