<?xml version="1.0" encoding="utf-8"?>
<!-- Generator: Adobe Illustrator 25.1.0, SVG Export Plug-In . SVG Version: 6.00 Build 0)  -->
<svg version="1.1" id="Ebene_1" xmlns="http://www.w3.org/2000/svg" xmlns:xlink="http://www.w3.org/1999/xlink" x="0px" y="0px"
	 viewBox="0 0 1000 1000" style="enable-background:new 0 0 1000 1000;" xml:space="preserve">
<style type="text/css">
	.st0{fill:none;stroke:#000000;stroke-width:20;stroke-miterlimit:10;}
	.st1{fill:#FFFFFF;stroke:#000000;stroke-width:20;stroke-miterlimit:10;}
</style>
<circle class="st0" cx="500" cy="500" r="331.5"/>
<path class="st1" d="M504.3,464.2c-15.2,0.4-32.2-40.5-31.7-76.8c0.4-34.5,16.8-73.9,31.7-73.5c15.1,0.4,28.4,41.5,28.4,75.1
	S519.4,463.8,504.3,464.2z"/>
<path class="st1" d="M471.1,522.5c8,13-19,48.1-50.7,65.9c-30.1,16.9-72.4,22.4-79.5,9.3c-7.2-13.3,21.8-45.4,50.9-62.2
	C421,518.7,463.2,509.6,471.1,522.5z"/>
<path class="st1" d="M542.7,523.7c7.3-13.4,51.2-7.6,82.4,10.9c29.7,17.6,55.6,51.5,47.8,64.2c-7.9,12.9-50.2,3.8-79.3-13
	C564.5,569,535.5,536.9,542.7,523.7z"/>
</svg>
