<?xml version="1.0" encoding="utf-8"?>
<!-- Generator: Adobe Illustrator 25.1.0, SVG Export Plug-In . SVG Version: 6.00 Build 0)  -->
<svg version="1.1" id="Ebene_1" xmlns="http://www.w3.org/2000/svg" xmlns:xlink="http://www.w3.org/1999/xlink" x="0px" y="0px"
	 viewBox="0 0 1000 1000" style="enable-background:new 0 0 1000 1000;" xml:space="preserve">
<style type="text/css">
	.st0{fill:none;stroke:#000000;stroke-width:20;stroke-miterlimit:10;}
</style>
<path class="st0" d="M144.8,476.9h78.8c8.7,25.8,68.8,194.4,234.6,262.3c134.6,55.1,251.7,8.2,281.6-4.9
	c10.1,21.6,20.1,43.3,30.2,64.9c-24.6,12.8-190.4,94.9-373.7,3.7C206.1,708.4,151.7,504.7,144.8,476.9z"/>
<path class="st0" d="M402.9,154.7c-6.4-1.2-19.5,27.9-46.9,140.5l40.2,22.5l26.8-37.5c4.6,30.7,1.4,54.9-2.6,71.6
	c-26.8,111.8-153.9,145.7-161.7,147.6c-0.3,4-0.3,9.8,1.5,16.5c2.9,10.6,8.7,17.6,11.9,20.9c53.6-16.9,107.3-33.7,160.9-50.6
	L610.7,580l43.6,154.3c4.5,0.7,12.4,1.5,21.9-1c8.7-2.3,14.8-6.3,18.3-9c-6.1-51.8-12.3-103.7-18.4-155.5c4-0.8,19.7-4.3,31.4-20.4
	c13.1-18,11.6-38.3,11.2-42.3c6.9,3.4,15.6,9.3,18.9,19.6c4,12.5-3.1,22,1.4,32.9c2.2,5.4,7.7,12,22.5,15.9
	c31.2,0.4,62.5,0.9,93.7,1.3c-5-3.9-13.7-11.8-20.3-25c-5.3-10.6-7.3-20.5-8-26.9c0-15.6,0-31.2,0-46.8c-0.3-2.2-1.2-7.7-5.3-12.4
	c-7-8.2-17.2-6.5-18.2-6.3c-32.4,6.2-64.8,12.5-97.2,18.7c-5.6-1.2-18-4.8-29.5-16.3c-9.1-9.1-13.6-19.1-15.7-24.9
	c16.2-41.8,32.4-83.7,48.6-125.5c10.1-1.9,20.1-3.7,30.2-5.6c-15.1-18.7-30.2-37.5-45.3-56.2c7.4-5.4,14.7-10.9,22.1-16.3
	c-4-15.2-8-30.3-12.1-45.5c-14,6.3-27.9,12.6-41.9,18.9c0,9.9,0,19.9,0,29.8c-20.1-2.9-40.1-5.8-60.2-8.7
	c1.6,11.6,3.2,23.3,4.9,34.9l-82.1,108.7c2.1-11.1,11-62.9-17.3-113.8c-23-41.3-56.9-57.5-68.2-62.3c-4.4-1.3-10.5-3.9-16.5-8.9
	C408.2,172.5,407.5,155.6,402.9,154.7z"/>
</svg>
