<?xml version="1.0" encoding="utf-8"?>
<!-- Generator: Adobe Illustrator 25.1.0, SVG Export Plug-In . SVG Version: 6.00 Build 0)  -->
<svg version="1.1" id="Ebene_1" xmlns="http://www.w3.org/2000/svg" xmlns:xlink="http://www.w3.org/1999/xlink" x="0px" y="0px"
	 viewBox="0 0 500 500" style="enable-background:new 0 0 500 500;" xml:space="preserve">
<style type="text/css">
	.st0{stroke:#000000;stroke-width:0.75;stroke-miterlimit:10;}
</style>
<path class="st0" d="M342,147.7l-63.1-45.8V84.3h4.8c1.8,0,3.5-0.9,4.5-2.4l0.1-0.2c0.7-1.2,1-2.6,0.7-3.9c-0.3-1.4-1.1-2.7-2.4-3.4
	L250,50l-36.7,24.6l-0.7,0.6c-1.1,1.1-1.7,2.5-1.7,3.9c0,3,2.4,5.4,5.4,5.4h4.8v17.5l-63.1,45.8l-0.5,0.5c-1.1,1.1-1.7,2.5-1.7,3.9
	c0,3,2.4,5.4,5.4,5.4h17.1v68.2c0,1.5,0.6,2.8,1.6,3.8l22.8,22.8V450h94.4V252.3l22.8-22.8c1-1,1.6-2.4,1.6-3.8v-68.2h17.2
	c1.8,0,3.5-0.9,4.5-2.4l0.1-0.2C344.8,152.5,344.2,149.4,342,147.7z M250,60.9l21.6,14.4h-1.7v0.1h-41.5L250,60.9z M269.9,84.4v15.3
	h-39.7V84.4H269.9z M312.5,224.2L289.7,247c-1,1-1.6,2.4-1.6,3.8v190.1h-76.2V250.8c0-1.5-0.5-2.8-1.6-3.8l-22.8-22.8v-17.9h125.1
	V224.2z M312.5,197.2H187.4v-39.7h125.1V197.2z M317,148.4H172.5l54.6-39.7h45.8l54.6,39.7H317z"/>
</svg>
