<?xml version="1.0" encoding="utf-8"?>
<!-- Generator: Adobe Illustrator 25.1.0, SVG Export Plug-In . SVG Version: 6.00 Build 0)  -->
<svg version="1.1" id="Ebene_1" xmlns="http://www.w3.org/2000/svg" xmlns:xlink="http://www.w3.org/1999/xlink" x="0px" y="0px"
	 viewBox="0 0 1000 1000" style="enable-background:new 0 0 1000 1000;" xml:space="preserve">
<style type="text/css">
	.st0{fill:#FFFFFF;stroke:#000000;stroke-width:15;stroke-miterlimit:10;}
</style>
<path class="st0" d="M151,250.8c1.6-6,61.1-11.7,91.4,21.2c10.3,11.1,19.9,29.7,14.9,35.4c-2.3,2.6-7.2,1.9-16.8,0.6
	c-9.5-1.4-20.1-2.9-30.6-9.2c-13-7.8-11.5-14.3-24.4-26.6C167.3,254.7,150.2,254.1,151,250.8z"/>
<path class="st0" d="M199.9,155.6c-4.6,1.7,0,37.4,17.8,69.4c4,7.3,19.3,34.7,31.4,31.5c6.5-1.7,9.7-11.8,10.2-13.3
	c3.2-10.2-1.2-19-3.6-23.6c-7.1-13.8-16.3-15.7-28.9-27C205.9,173.9,203.3,154.3,199.9,155.6z"/>
<path class="st0" d="M134.4,161.1c-1.2,1.7,7.5,6.3,15.2,21.1c6.6,12.8,3.3,15.5,9.1,26.1c8,14.6,20.9,21.4,30,26.2
	c8.5,4.5,14.4,7.6,17.3,5.3c5.4-4.3-2-24.5-10.9-38.4C174.7,169.6,136.8,157.7,134.4,161.1z"/>
<path class="st0" d="M201,313.5c9.1-14.3,77.3,2.2,108.3,41c4.3,5.4,15,18.8,10.1,28c-3.7,7.1-15.1,8.5-22.3,9.4
	c-4.6,0.6-19.8,1.9-38.3-6.6c-17.5-8.1-27.2-19.9-36.3-31.3C208.3,336.1,196.3,321,201,313.5z"/>
<path class="st0" d="M279.8,211.9c-8,0.2-20.6,33.4-16,65.7c3.2,22.2,16.3,55.7,36.2,55.4c11-0.1,20.7-10.5,25.1-18.6
	c9.4-17.5-0.2-36-3.2-41.8c-6.9-13.3-12.8-11.9-24-27.8C284,225.3,284.9,211.8,279.8,211.9z"/>
<path class="st0" d="M275.4,401.3c4.1-8.2,51.5-1.1,90.4,24.6c16.1,10.6,42.6,32.4,37.3,44.9c-2.5,5.8-11.1,8.1-19.4,10.2
	c-16.2,4.3-29.4,0.5-34.7-1c-20.6-6-32.3-19.9-37.4-26.1c-5.6-6.8-4.5-7.7-13.1-20.5C282.2,409.2,273.5,405.1,275.4,401.3z"/>
<path class="st0" d="M337.4,294.7c-5.7,0.6-12.7,28.2-8.1,55.8c1.1,6.7,7.9,43.2,34.2,54.4c3.3,1.4,13.5,5.7,20,1
	c5-3.6,5.5-11,5.8-15.9c0.3-4,0-8.9-5.3-24.1c-4.3-12.4-6.5-18.6-10-23.6c-6-8.5-9.8-8.4-17.4-16
	C341.1,310.6,341.8,294.2,337.4,294.7z"/>
<path class="st0" d="M368.2,496.9c3.9-6.5,20-4.3,44.4-1c17.5,2.4,27.9,3.9,39.1,11.4c9.9,6.6,15.2,14.4,23.3,26.2
	c9,13.2,13.6,19.8,11.4,24c-4.8,9.4-37.1,7.2-62.5-3.2C389,539.8,361.8,507.5,368.2,496.9z"/>
<path class="st0" d="M406.6,377.4c-10.4,3.3-11.6,37.7-5.7,62.4c5.4,22.6,15.9,33.6,18.3,36.1c7.3,7.4,14.7,11.2,20.4,14.1
	c10.7,5.5,18.8,9.6,24.1,6.3c1.6-1,4.7-3.9,4.5-26.1c-0.1-17.6-0.2-26.4-3.1-33.9c-3.6-9.4-7.6-11.2-28.6-32.1
	C413.3,381.1,410.9,376.1,406.6,377.4z"/>
<path class="st0" d="M422.7,570.9c2.7-8.7,53.8-6.2,97.8,12.8c18.4,7.9,27.7,15.3,30.1,26.1c1.8,8.2-0.4,18.5-7,24.9
	c-12.9,12.6-36,4-38.9,2.9c-4.3-1.6-6.7-3.2-10.8-5.7c-8.4-5.1-20.6-12-37-19.4c-0.6-0.3-1.1-0.7-1.4-1.3c-1.9-3.4-4.7-7.9-8.3-12.9
	C432.6,578.5,421.4,575.1,422.7,570.9z"/>
<path class="st0" d="M478.6,458.4c-6,3.1-4.6,17-2.2,39.8c2.9,27.5,5.6,50.3,23.2,66.4c5,4.5,13.9,12.4,26.9,11.9
	c1.6-0.1,15.8-0.8,22.1-9.9c9.7-14-6-38.3-17.9-57C518.6,490.9,490.1,452.4,478.6,458.4z"/>
<path class="st0" d="M497.6,649.2c5.5-11.3,54.6-2,87.1,10.8c12.6,5,23,12,44,26.1c13.3,9,18.5,13.5,18.9,20.3
	c0.5,9.7-9.1,19.1-17.7,23.3c-10.8,5.2-21,2.7-32.1-0.2c-14.5-3.8-24.3-10.2-43.3-22.8c-12.8-8.6-20.5-13.6-29.9-22.3
	C509.6,670.8,494,656.5,497.6,649.2z"/>
<path class="st0" d="M556.6,535.9c-3.2,2.4,3.4,12-0.1,32.7c-1.3,7.8-2.4,7.3-3.1,12.9c-1.8,14.9,4.8,26.6,13.4,41.4
	c6,10.4,11.3,19.2,21.8,27.7c8.5,6.8,18.8,15.2,25.6,12c11.1-5.1,10.4-39.4,0.8-65.9C600.1,555.4,562.8,531.3,556.6,535.9z"/>
<path class="st0" d="M601.3,739c5.6-9.8,45.6,2.5,66,8.8c26.4,8.1,45.8,14.4,47.3,27.7c1.3,11.7-12.1,22.1-12.8,22.6
	c-12.4,9.4-27.2,6.3-33.3,5.1c-5.7-1.2-15.6-4.2-36.6-24.4C611.7,759.4,597.5,745.7,601.3,739z"/>
<path class="st0" d="M633.9,629.4c-6.4,2.6-4.7,30.4,4.3,56.2c7.6,21.6,26.6,60.1,45.2,56.8c10.7-1.9,17.3-16.8,19.3-21.2
	c6.8-15.1,3.1-28.7,1.8-33.1c-5.8-19.8-22.5-29.7-29-33.5c-6.2-3.7-6.3-2.4-14.7-7.1C642.1,636.8,637.9,627.7,633.9,629.4z"/>
<path class="st0" d="M682.1,817.4c1-7.2,34-16.4,57.8-3.8c3.7,1.9,17.5,9.2,16.5,19.3c-0.8,8.6-12,14.2-15.5,15.9
	c-2.2,1.1-16.5,7.9-27.7,1.9c-7.6-4.1-5.7-9.7-15.8-20.2C688.1,820.9,681.7,820.7,682.1,817.4z"/>
<path class="st0" d="M714.6,692.3c-10.8,3.3-13.7,39.5-4.9,68.7c7.5,24.9,26.1,52.9,40,49.7c8.6-1.9,13.5-15.3,15.7-21.3
	c5-13.4,2.7-24.8,1.7-29.7c-1.8-8.5-5.3-15.8-17.5-31.6C730.4,703,720.7,690.4,714.6,692.3z"/>
</svg>
