<?xml version="1.0" encoding="utf-8"?>
<!-- Generator: Adobe Illustrator 25.1.0, SVG Export Plug-In . SVG Version: 6.00 Build 0)  -->
<svg version="1.1" id="Ebene_1" xmlns="http://www.w3.org/2000/svg" xmlns:xlink="http://www.w3.org/1999/xlink" x="0px" y="0px"
	 viewBox="0 0 99.2 99.2" style="enable-background:new 0 0 99.2 99.2;" xml:space="preserve">
<g>
	<path d="M62.6,11.5h-6.7H43.3h-6.7c-3.1,0-5.7,2.5-5.7,5.7v64.7c0,3.3,2.6,5.9,5.9,5.9h10.8h3.9h10.8c3.3,0,5.9-2.6,5.9-5.9V17.1
		C68.3,14,65.8,11.5,62.6,11.5z M66,81.9c0,1.9-1.6,3.5-3.5,3.5h-4.3H41h-4.3c-1.9,0-3.5-1.6-3.5-3.5V17.3c0-1.9,1.5-3.5,3.5-3.5
		h3.3c0.2,0,0.4,0.2,0.5,0.4l0.1,0.5c0.1,0.9,0.9,1.6,1.8,1.6h2.7h9.4H57c0.9,0,1.7-0.7,1.8-1.6l0.1-0.5c0-0.2,0.2-0.4,0.5-0.4h3.3
		c1.9,0,3.5,1.5,3.5,3.5V81.9z"/>
</g>
</svg>
