<?xml version="1.0" encoding="utf-8"?>
<!-- Generator: Adobe Illustrator 25.1.0, SVG Export Plug-In . SVG Version: 6.00 Build 0)  -->
<svg version="1.1" id="Ebene_1" xmlns="http://www.w3.org/2000/svg" xmlns:xlink="http://www.w3.org/1999/xlink" x="0px" y="0px"
	 viewBox="0 0 5173.8 2084.1" style="enable-background:new 0 0 5173.8 2084.1;" xml:space="preserve">
<style type="text/css">
	.st0{fill:none;}
	.st1{fill:none;stroke:#000000;stroke-width:4;stroke-miterlimit:10;}
	.st2{fill:none;stroke:#000000;stroke-width:6;stroke-miterlimit:10;}
	.st3{fill:#FFFFFF;stroke:#000000;stroke-width:6;stroke-miterlimit:10;}
	.st4{display:none;opacity:0.5;fill:none;stroke:#020203;stroke-width:5;stroke-miterlimit:10;}
	.st5{stroke:#000000;stroke-width:2;stroke-miterlimit:10;}
	.st6{opacity:0.3;}
	.st7{fill:url(#SVGID_1_);}
	.st8{fill:url(#SVGID_2_);}
	.st9{fill:url(#SVGID_3_);}
	.st10{fill:url(#SVGID_4_);}
	.st11{fill:none;stroke:#000000;stroke-width:10;stroke-miterlimit:10;}
</style>
<pattern  x="86.9" y="-457.9" width="585" height="580.3" patternUnits="userSpaceOnUse" id="Neues_Muster_2" viewBox="0 -580.3 585 580.3" style="overflow:visible;">
	<g>
		<rect y="-580.3" class="st0" width="585" height="580.3"/>
		<g>
			<path d="M508.9-122.5L508.9-122.5c0.7,6.5,2.4,45.3,0.1,53.9l0,0.1c-0.3,1.2-1.3,4.9,1.1,7.6c1.4,1.6,3.4,1.9,5,1.9
				c1.2,0,2.3-0.2,2.9-0.3c9.9-2.1,16.7-9,17-9.3c0.7-0.7,16.5-17.4,12.2-48.5c-0.4-2.8-1.3-6.8-4.5-10.1c-2.8-2.8-5.9-3.6-8.9-4.4
				c-2.9-0.8-7.3-0.6-15.9-0.1c-2,0.1-5.3,0.3-7.4,2.9C509.2-127.3,508.6-125.1,508.9-122.5L508.9-122.5 M532-124.8
				c2.8,0.8,4.3,1.2,5.7,2.6c1.3,1.4,2.1,3.2,2.5,6.1c1.6,11.5,0.4,22.2-3.6,31.7c-3,7.1-6.6,10.9-6.6,10.9
				c-0.1,0.1-5.5,5.6-13.3,7.3c-0.3,0.1-0.6,0.1-0.8,0.1c0-0.1,0.1-0.3,0.1-0.5l0-0.1c2.8-10.6,0.6-51.9,0.1-56.5l0,0
				c-0.1-0.8,0-1.1,0-1.1c0.3-0.2,1.7-0.3,2.3-0.3c4.3-0.2,7.7-0.4,10.1-0.4C530-125.1,531.3-125,532-124.8z"/>
			<path d="M547-61.1c-6.4,6.1-14.3,13.8-23.8,14.4l-0.3,0c-1.4,0.1-3.9,0.2-5.4,1.8c-0.3,0.3-1.2,1.2-1.5,4.4
				c-0.5,4.4,0.7,7.6,1.7,10.4c1.1,3,2.2,6.2,0.7,9.6c-2.5,5.7-9.9,6.8-13.8,7.3c-13.2,1.9-23.2,2.6-31.7,2.6
				c-8.5,0-15.3-0.6-22.1-1.3c-6.4-0.6-12.9-1.2-20.8-1.3l-0.1,0c-2.4,0-8.1-0.1-11.5-4.3c-5.4-6.5-0.7-17.4,0.9-21l0.2-0.4
				c3.6-8.5,4.9-29,3.8-60.8c0,0-0.1,0-0.1,0c-7.9-0.8-12.2-7.7-14.3-11.1c-7.3-11.5-5.4-23.4-3.5-34.8c0.8-4.9,1.6-10,1.7-15.1
				c0-1.5,0.1-5.2,2.8-8.4c1.5-1.8,3.5-3,6.8-4.1c5.8-1.9,11-1.9,13.6-1.7c5.1,0.4,8.8,1.6,11,2.3c0.4,0.1,0.7,0.2,1,0.3
				c4.1,1.3,6.7,0.6,15-2c4.3-1.4,9.7-3,17.3-5c16.4-4.1,23.1-4.4,28.7-1.1c5.2,3,8.5,8.1,8.7,8.4c2.2,3.3,5.1,7.9,3.6,12.5
				c-0.4,1.3-1.2,2.5-2.2,3.5c0,3.7,0,7.2,0.2,10.2c0,1,0.1,2,0.7,2.6c0.3,0.3,1.7,0.9,5.1,0.8c2.8-0.1,4.1-0.6,5.6-1.1
				c1.6-0.5,3.4-1.1,6.4-1.3c6-0.4,10.6,1.3,12.8,2.1c2.9,1,6.1,2.2,8.9,5.2c3.3,3.5,4.2,7.7,4.7,10.5
				C565.2-79.2,547.7-61.8,547-61.1z M423.9-106.6c3.6,0.4,7.8-1.9,9-4.8c0.5-1.1,0.3-1.7-0.3-3.8c-0.6-2.1-1.4-5-1.2-9.4
				c0.2-5.2,1.6-8.7,4-14.6c2.7-6.7,4.5-11.1,8.8-15.4c6.2-6.2,13.9-8,16.8-8.4c6.2-1,10,0.4,14.1,1.9c2.9,1.1,6.3,2.4,11.5,3
				c5.1,0.6,10.8,0.5,15.2-0.3c5.1-1,6.9-2.5,7.1-3.2c0.4-1.3-1.7-4.6-2.8-6.4c0,0-2.6-3.9-6.2-6c-2.7-1.5-6.3-2.5-23.4,1.9
				c-7.4,1.9-12.7,3.5-17,4.9c-8.5,2.7-12.8,4-19.2,2.1c-0.3-0.1-0.7-0.2-1.1-0.4c-2-0.7-5.1-1.7-9.3-2c-1.6-0.1-5.9-0.3-10.8,1.3
				c-2.8,0.9-3.4,1.6-3.6,1.9c-1.1,1.3-1.1,3.1-1.2,4c-0.2,5.7-1,11-1.8,16.1c-1.8,11.1-3.3,20.6,2.5,29.9
				C416.6-111.7,419.5-107.1,423.9-106.6z M550.7-125.8c-0.3-2.1-0.9-4.7-2.8-6.7c-1.6-1.7-3.6-2.5-6.2-3.4c-1.9-0.7-5.4-2-9.9-1.7
				c-2,0.1-3.1,0.5-4.5,1c-1.8,0.6-3.9,1.3-7.7,1.5c-5.1,0.2-8.4-0.8-10.5-3c-2.4-2.5-2.5-5.7-2.6-7.1c-0.1-2.1-0.2-4.4-0.2-6.8
				c-6.6,1.9-15.2,1.8-20.6,1.2c-6.1-0.7-10-2.2-13.2-3.4c-3.6-1.4-6-2.3-10.4-1.6c-2.3,0.4-8.2,1.8-13,6.5
				c-3.2,3.2-4.6,6.7-7.1,12.9c-2.2,5.5-3.3,8.3-3.5,12.2c-0.1,3.2,0.4,5.2,1,7.2c0.7,2.4,1.4,5.1,0,8.5c-1.6,3.7-5,6.7-9.1,8.1
				c1.2,33.8-0.2,54.9-4.3,64.6l-0.2,0.5c-4,9.1-2.9,12.5-2,13.6c1.3,1.6,4.6,1.7,6.1,1.7l0.1,0c8.2,0.1,14.9,0.7,21.4,1.3
				c13.7,1.3,26.6,2.5,52.1-1.3c2.2-0.3,7.5-1.1,8.3-3.1c0.3-0.8-0.1-2.1-0.9-4.4c-1.2-3.2-2.7-7.5-2.1-13.6
				c0.4-3.8,1.5-6.5,3.4-8.5c3.4-3.6,8.1-3.9,10.1-4.1l0.3,0c6.9-0.5,13.8-7.1,19.3-12.5c0,0,3.9-3.9,6.9-13.1
				C551.7-87.9,554.2-102.9,550.7-125.8z"/>
		</g>
		<path d="M350.8-176.8v102.9c0,0.4,0,0.7-0.1,1.1c-6.1,35.7-36.3,62.8-71.8,64.4c-1.2,0.1-2.3,0.1-3.5,0.1
			c-36.9,0-69-27.2-75.5-64.5c-0.1-0.4-0.1-0.7-0.1-1.1v-102.9c0-3.3,2.7-6,6-6h138.9C348.1-182.9,350.8-180.2,350.8-176.8z
			 M206.3-176.4V-89l18.2-41.1c1-2.2,3.1-3.5,5.5-3.5c2.4,0,4.5,1.4,5.4,3.6L253-88.6l19.1-41.6c1-2.2,3.2-3.5,5.5-3.5
			c2.4,0.1,4.5,1.5,5.4,3.7l16.5,41.3l18.2-41.5c0.9-2.2,3.1-3.5,5.4-3.5c0,0,0,0,0.1,0c2.4,0,4.5,1.5,5.4,3.7l15.6,37.7l0-84.2
			H206.3z M344.3-74v-1.2l-21.1-51L305-84.8c-1,2.2-3.2,3.5-5.5,3.5c-2.4,0-4.5-1.5-5.4-3.7l-16.5-41.4l-19.1,41.6
			c-1,2.2-3.2,3.4-5.5,3.5c-2.4,0-4.4-1.4-5.4-3.6l-17.6-41.5l-23.5,53.1c6.4,34.9,37.3,60,72.2,58.4
			C311.1-16.4,338.7-41.3,344.3-74z"/>
		<g>
			<path d="M82.6-26.1c0.1,3.7,0.8,6.5,1.4,9c0.9,3.6,1.7,7-0.4,10.6C80.9-2,75.2,0,69.9,0c-1.2,0-2.4-0.1-3.5-0.3
				c-7.8-1.4-11.8-7.4-12.8-9.2c-0.5-0.9-0.9-1.8-1.3-2.6c-0.5,0.9-1.2,1.7-2.1,2.5c-4.3,3.6-10.7,3-14.9,1.4
				c-7.2-2.8-9.6-9.3-10.1-10.6l-0.1-0.4c-0.3,0.4-0.7,0.7-1.1,1c-2.6,2.1-6.4,3.6-10.2,3.6c-2.4,0-4.8-0.6-7-1.9
				c-4.4-2.7-7.1-8-6.8-13.9C1-37.2,2.8-43.6,5.5-49.6c2.2-5,5-9.6,8.4-14C5.6-76.3,0.7-91.5,0.7-107.8c0-41.3,30.9-75.6,70.7-80.9
				c0.6-1.7,1.1-3.4,1.8-5c2.5-6.1,5.8-11.8,9.9-16.9c4.3-4.4,9.9-6.2,14.9-4.8c6.4,1.7,10.2,8.2,10.6,13.7c0,0.5,0,1,0,1.5l0.3-0.2
				c1.2-0.6,7.7-3.3,14.6,0c4.1,1.9,8.9,6.2,9.2,11.7c0.1,1.2-0.1,2.3-0.4,3.2c0.9-0.3,1.8-0.6,2.8-0.9c2.1-0.5,9.1-1.7,15.5,3
				c5,3.6,9.1,10.6,7.3,16.8c-1.1,4-4.2,5.7-7.4,7.6c-1,0.6-2.2,1.3-3.4,2.1c10.4,13.7,16.6,30.8,16.6,49.3
				C164.1-62.8,127.6-26.2,82.6-26.1z M128.8-177.6c-0.6,0.4-1.3,0.8-1.9,1.3c0.3,0.2,0.6,0.5,1,0.7c0.4,0.2,0.7,0.5,1,0.7
				c1.7,1.2,3.3,2.4,4.9,3.6c0.3,0.2,0.5,0.4,0.8,0.6c0.9,0.7,1.8,1.5,2.6,2.3c0.2,0.1,0.3,0.3,0.5,0.4c1.6,1.5,3.2,3.1,4.8,4.7
				c0.2,0.2,0.4,0.4,0.6,0.6c0.3,0.4,0.7,0.7,1.1,1.1c1.5-1,2.9-1.8,4.1-2.5c3-1.7,4.3-2.6,4.8-4.3c1-3.5-1.9-8.3-5.3-10.8
				c-4.6-3.4-9.9-2.3-10.9-2.1C134-180.3,131.3-179.1,128.8-177.6z M104.6-187.4c-0.2,0.3-0.4,0.6-0.6,0.8c0.5,0.1,0.9,0.3,1.4,0.4
				c0.7,0.2,1.4,0.4,2,0.6c0.8,0.2,1.5,0.5,2.3,0.8c0.5,0.2,1.1,0.4,1.6,0.6c0.9,0.3,1.7,0.7,2.5,1c0.4,0.1,0.7,0.3,1.1,0.5
				c2.1,0.9,4.3,1.9,6.3,3c0.9-1,1.7-1.8,2.4-2.6c2.8-2.9,4-4.3,3.9-6.2c-0.2-3-3.3-5.7-6.1-7.1c-4.2-2-8.2-0.7-9.6-0.1
				C109.2-193.2,106.7-190.4,104.6-187.4z M77.7-189.3c1.6-0.1,3.1-0.1,4.7-0.1c2.2,0,4.3,0.1,6.4,0.3c0.3,0,0.7,0,1,0.1
				c2.1,0.2,4.1,0.5,6.1,0.8c0.2,0,0.3,0,0.5,0.1c1.3-2.2,2.5-4,3.6-5.6c2.4-3.4,3.4-5,3.2-7.6c-0.3-3.4-2.6-7.7-6.5-8.7
				c-3.1-0.8-6.7,0.4-9.3,3.2c-3.6,4.5-6.7,9.8-9,15.4c-0.3,0.8-0.6,1.5-0.9,2.3C77.6-189.3,77.7-189.3,77.7-189.3z M27.2-41.6
				c0.6-1.4,1.3-2.8,2-4.2c-4.5-3.9-8.6-8.2-12.1-12.9c-2.6,3.6-4.8,7.4-6.6,11.4c-2.5,5.5-4.2,11.4-5,17.4c-0.1,3.6,1.5,7,4.2,8.7
				c3.5,2.1,8.2,0.9,10.8-1.3c2-1.6,2.4-3.5,3.3-7.6C24.5-33.1,25.2-36.9,27.2-41.6z M50-32.8c-5.4-2.4-10.6-5.3-15.5-8.8
				c-1.3,3.4-2.3,6.9-2.9,10.4c-0.7,3.6-1,7.3-1,11c0.5,1.4,2.3,5.2,6.7,6.8c2.9,1.1,7.1,1.5,9.3-0.5c1.5-1.2,1.6-3.1,1.8-7.1
				C48.6-24.1,48.8-27.9,50-32.8z M78.6-15.8c-0.6-2.7-1.4-6-1.5-10.4c-0.2,0-0.5-0.1-0.7-0.1c-1.3-0.1-2.7-0.2-4-0.4
				c-0.5-0.1-1-0.1-1.5-0.2c-1.3-0.2-2.6-0.4-3.8-0.6c-0.9-0.2-1.7-0.4-2.6-0.5c-0.9-0.2-1.9-0.4-2.8-0.7c-0.9-0.2-1.8-0.5-2.7-0.8
				c-0.5-0.2-1.1-0.3-1.6-0.5c-0.7-0.2-1.4-0.4-2-0.6c-0.6,3.5-0.6,6.9,0.1,10.3c0.6,2.8,1.6,5.6,3,8.2c0.5,0.8,3.4,5.4,9,6.4
				c4.1,0.7,9.6-0.4,11.4-3.6C79.7-10.9,79.4-12.5,78.6-15.8z M158.6-107.8c0-18.7-6.8-35.8-18-49.1c-0.9-1-1.7-2-2.7-3
				c-0.5-0.6-1.1-1.2-1.7-1.7c-1.1-1.1-2.2-2.1-3.3-3.1c-0.6-0.6-1.3-1.1-1.9-1.6c-1.2-1-2.4-1.9-3.6-2.8c-0.6-0.5-1.3-0.9-1.9-1.3
				c-1.3-0.9-2.7-1.8-4-2.6c-0.7-0.4-1.5-0.9-2.2-1.3c-0.9-0.5-1.8-0.9-2.6-1.4c-0.9-0.4-1.8-0.9-2.7-1.3c-1-0.4-2-0.9-2.9-1.3
				c-0.6-0.2-1.2-0.5-1.8-0.7c-1.4-0.5-2.9-1-4.3-1.5c-0.4-0.1-0.8-0.2-1.2-0.3c-1.3-0.4-2.6-0.7-4-1c-0.9-0.2-1.9-0.4-2.9-0.6
				c-1.5-0.3-3-0.5-4.6-0.7c-0.4-0.1-0.8-0.1-1.2-0.1c-1.7-0.2-3.5-0.3-5.2-0.4c-0.2,0-0.5,0-0.8,0c-1.6-0.1-3.2-0.1-4.7,0
				c-0.3,0-0.7,0-1,0c-1.8,0.1-3.6,0.2-5.4,0.4C36-179.3,6.3-146.9,6.3-107.8c0,16.7,5.4,32.1,14.5,44.6c0.3,0.5,0.7,0.9,1,1.3
				c0.6,0.8,1.2,1.5,1.8,2.3c0.3,0.3,0.6,0.7,0.8,1c1.1,1.3,2.3,2.6,3.5,3.9c0.4,0.4,0.7,0.8,1.1,1.1c0.7,0.7,1.4,1.4,2.1,2
				c0.4,0.3,0.7,0.6,1.1,0.9c1.3,1.1,2.7,2.3,4,3.3c0.7,0.5,1.4,1.1,2.2,1.6c1.1,0.8,2.2,1.5,3.3,2.2c0.7,0.4,1.3,0.8,2,1.2
				c0.8,0.5,1.6,0.9,2.4,1.4c1.1,0.6,2.3,1.2,3.4,1.7c0.8,0.4,1.7,0.8,2.6,1.2c0.7,0.3,1.5,0.6,2.2,0.9c1.2,0.5,2.3,0.9,3.5,1.3
				c1,0.3,1.9,0.6,2.9,0.9c0.7,0.2,1.4,0.4,2.1,0.6c1.5,0.4,3,0.8,4.6,1.1c0.4,0.1,0.9,0.2,1.3,0.2c1.5,0.3,3,0.5,4.5,0.7
				c0.3,0,0.6,0.1,0.9,0.1c1.8,0.2,3.6,0.3,5.5,0.4c1,0,1.9,0.1,2.9,0.1C124.4-31.6,158.6-65.8,158.6-107.8z"/>
			<path d="M158-116.1l-0.7,1.1c-1.8,2.9-21.5,9.3-38.9,12.5c-11.6,2.2-23.5,3.3-35.3,3.5c4.2,8.8,9.4,16.9,15.6,24.1
				c6.1,7.1,12.1,12.3,16.1,15.7c4.9,4.2,7.1,6.1,5.4,8.8c-0.3,0.5-1,1.3-2.3,1.5c-0.2,0-0.5,0.1-0.8,0.1c-4.9,0-16.6-5.6-25.1-12.2
				c-10.4-8-18.4-18.7-23.9-31.8c-5.8,3.2-11.9,5.6-18.2,7.1c-6.2,1.5-31.7,5.9-34-2.4c-2.1-7.4,18.1-16.2,24.4-18.7
				c6.3-2.5,12.8-4.3,19.6-5.3c-4.8-3.8-9.4-8-13.6-12.4c-18.2-19-15.9-21.8-14.5-23.5c1.7-2,7.2-3.1,26,10.9
				c6.8,5.1,13,11,18.4,17.7c4.7-7.8,7.5-15.9,8.4-24.2c0.6-5.4,0.3-10.2,0.1-13.8c-0.3-5.1-0.5-8.4,2.6-9.3
				c0.7-0.2,1.9-0.3,3.3,0.6c3.1,2,7.5,9.7,8.8,17.5c2.1,13.2-1.9,26.1-6.3,33.2c4.4,0.8,8.9,1.2,17.5,1.5c18.2,0.4,32.6-3,39.6-4.6
				c4.3-1,6.8-1.6,7.5,1.2L158-116.1z M120.4-108.5c-3.2,0.1-6.5,0.2-9.9,0.1c-11.6-0.3-16.1-0.9-22.4-2.4l-1.5-0.3l-0.7-1.6
				c-0.3-1-0.1-2.1,0.6-2.9c3.3-3.8,9.8-17.1,7.4-32c-0.7-4.2-2.3-7.9-3.7-10.4c0,0.1,0,0.3,0,0.4c0.2,3.8,0.5,8.9-0.1,14.7
				c-1.1,10.3-4.9,20.2-11.1,29.6l-0.8,1.2l-1.6,0.1c-1,0.1-1.9-0.4-2.5-1.2c-5.6-7.4-12.2-14-19.5-19.5
				c-6.1-4.6-12.6-8.5-16.5-10.2c2.1,3.2,6.5,8.4,12.3,14.5c5.5,5.7,11.5,11,17.9,15.6c1,0.8,1.5,2.1,1.1,3.3
				c-0.3,1.2-1.4,2.1-2.6,2.2c-8.4,0.7-16.6,2.6-24.3,5.7c-10.3,4.1-19.1,9.5-20.8,12c2.9,1.3,14.6,1.7,27-1.4
				c6.7-1.7,13.2-4.3,19.3-8l1.1-0.7l1.4,0.4c0.8,0.3,1.5,0.9,1.8,1.8c5.1,13.4,13,24.2,23.2,32.2c4.6,3.6,9.3,6.3,13.2,8.1
				c-3.9-3.4-8.9-8.1-14-14c-7.3-8.6-13.4-18.4-18.1-29l-0.6-1.4l0.8-1.5c0.6-0.9,1.5-1.4,2.5-1.4c12.8,0.1,25.6-1.1,38.2-3.4
				C118.4-108.1,119.4-108.3,120.4-108.5z"/>
		</g>
		<g>
			<path class="st1" d="M21.4-361.3c2.4,1.4,4.8,1.8,7,2.1c2.2,0.3,3.3,0.5,3.8-0.1c1.2-1.3-1-5.5-3.4-8.1
				c-6.9-7.5-20.4-6.2-20.8-4.8c-0.2,0.7,3.7,0.9,7.8,4.9C18.8-364.5,18.5-363,21.4-361.3z"/>
			<path class="st1" d="M30.3-370.9c1.5-0.4,2.2-2.7,2.3-3c0.7-2.3-0.3-4.3-0.8-5.4c-1.6-3.1-3.7-3.6-6.6-6.1
				c-4.8-4.3-5.3-8.7-6.1-8.4c-1,0.4,0,8.5,4,15.8C24.1-376.4,27.6-370.2,30.3-370.9z"/>
			<path class="st1" d="M16.6-375.9c1.9,1,3.3,1.7,3.9,1.2c1.2-1-0.5-5.6-2.5-8.7c-4.7-7.2-13.3-9.9-13.8-9.2
				c-0.3,0.4,1.7,1.4,3.5,4.8c1.5,2.9,0.8,3.5,2.1,5.9C11.6-378.5,14.5-377,16.6-375.9z"/>
			<path class="st1" d="M41.3-340.1c1.6-0.2,4.2-0.5,5.1-2.1c1.1-2.1-1.3-5.1-2.3-6.4c-7.1-8.8-22.6-12.6-24.6-9.3
				c-1.1,1.7,1.7,5.1,4.9,9.2c2.1,2.6,4.3,5.3,8.2,7.1C36.8-339.7,40.2-340,41.3-340.1z"/>
			<path class="st1" d="M41.9-353.5c2.5,0,4.7-2.4,5.7-4.2c2.1-4,0-8.2-0.7-9.5c-1.6-3-2.9-2.7-5.5-6.3c-3.2-4.4-2.9-7.5-4.1-7.5
				c-1.8,0-4.7,7.6-3.6,15C34.4-361,37.4-353.4,41.9-353.5z"/>
			<path class="st1" d="M61-319.8c1.9-0.5,3.8-1,4.4-2.3c1.2-2.9-4.8-7.8-8.5-10.2c-8.8-5.9-19.6-7.5-20.6-5.6
				c-0.4,0.9,1.6,1.8,5.3,7.3c2,2.9,1.7,3.1,3,4.7c1.2,1.4,3.8,4.6,8.5,5.9C54.3-319.7,57.3-318.8,61-319.8z"/>
			<path class="st1" d="M48.6-349.5c0.3,1.5,1.8,9.8,7.8,12.4c0.8,0.3,3.1,1.3,4.6,0.2c1.1-0.8,1.2-2.5,1.3-3.6c0.1-0.9,0-2-1.2-5.5
				c-1-2.8-1.5-4.2-2.3-5.4c-1.4-1.9-2.2-1.9-4-3.6c-3.5-3.6-3.4-7.3-4.4-7.2C49.1-362.1,47.5-355.8,48.6-349.5z"/>
			<path class="st1" d="M84.3-302.4c0.5-1-0.5-2.5-2.6-5.5c-1.8-2.7-3.1-4.5-5.3-6c-2.5-1.7-4.9-2-8.9-2.6
				c-5.5-0.8-9.2-1.3-10.1,0.2c-1.5,2.4,4.7,9.8,12.7,13C75.9-300.8,83.2-300.3,84.3-302.4z"/>
			<path class="st1" d="M69.1-321c1.7,1.7,3.3,2.5,4.6,3.2c2.4,1.2,4.3,2.2,5.5,1.4c0.4-0.2,1.1-0.9,1-5.9c0-4-0.1-6-0.7-7.7
				c-0.8-2.1-1.7-2.6-6.5-7.3c-5.3-5.2-5.8-6.4-6.8-6.1c-2.4,0.7-2.6,8.6-1.3,14.2C66.1-324,68.5-321.5,69.1-321z"/>
			<path class="st1" d="M97.3-284.8c1.5-1.5,2-3.8,1.6-5.7c-0.5-2.5-2.7-4.1-6.8-5.9c-10-4.3-21.6-4.9-22.3-2.9
				c-0.3,1,2.2,1.7,5.5,6.3c0.8,1.1,1.5,2.2,1.9,2.9c0.1,0.1,0.2,0.2,0.3,0.3c3.7,1.7,6.5,3.2,8.4,4.4c0.9,0.6,1.5,0.9,2.5,1.3
				C89.2-283.9,94.4-282,97.3-284.8z"/>
			<path class="st1" d="M87.3-300.8c1.1,1,3.2,2.8,6.1,2.7c0.4,0,3.6-0.2,5-2.2c2.2-3.2-1.4-8.7-4.1-13c-2.7-4.3-9.2-13-11.8-11.7
				c-1.4,0.7-1,3.9-0.5,9.1C82.7-309.6,83.3-304.5,87.3-300.8z"/>
			<path class="st1" d="M107.6-281.2c1.9,1.6,4.3,3.5,5.8,2.7c2.5-1.2,2.4-9,0.2-15c-3.4-9.4-11.9-14.9-13.3-13.8
				c-0.7,0.6,0.8,2.7,0,7.4c-0.3,1.8-0.5,1.7-0.7,2.9c-0.4,3.4,1.1,6.1,3,9.4C104-285.2,105.2-283.1,107.6-281.2z"/>
			<path class="st1" d="M136.2-252.8c-0.3-3-4.8-4.5-10.8-6.3c-4.6-1.4-13.8-4.2-15-2c-0.9,1.5,2.4,4.6,6.9,9c4.8,4.6,7,5.3,8.3,5.6
				c1.4,0.3,4.8,1,7.6-1.2C133.5-247.8,136.5-250.1,136.2-252.8z"/>
			<path class="st1" d="M142-244.1c-5.4-2.9-12.9-0.8-13.1,0.9c-0.1,0.7,1.3,0.8,3.5,3c2.3,2.4,1.9,3.7,3.6,4.6
				c2.6,1.4,5.8-0.2,6.3-0.4c0.8-0.4,3.3-1.7,3.5-3.6C146-242,142.8-243.7,142-244.1z"/>
			<path class="st1" d="M148.2-256.4c-0.4-1.9-1.2-3.6-4-7.2c-4.4-5.7-6.6-8.6-8-8.1c-0.8,0.2-1.4,1.3-1.8,2.8
				c0.1-1.8-0.3-3.2-0.5-3.8c-1.3-4.5-5.1-6.8-6.6-7.6c-1.4-0.8-1.4-0.5-3.3-1.6c-4.3-2.4-5.2-4.5-6.1-4.1c-1.5,0.6-1.1,6.9,1,12.8
				c0.3,0.8,0.6,1.6,1,2.6c-0.7-0.7-1.7-1.4-3.2-2.4c-4.8-3.2-7.1-4.8-10-5.9c-7.4-2.9-18.5-5-19.8-2.5c-0.8,1.7,2.7,4.9,6.1,8
				c2.1,2,3.9,3.1,6.8,5.1c4.3,2.9,6.6,4.3,9.9,5.2c2.5,0.7,4.9,1.2,7.3,0c1.9-0.9,4-2.9,4-5.1c2.1,4.3,5.2,8.5,8.2,7.9
				c2.4-0.4,3.9-3.8,4.4-4.8c0.2-0.5,0.4-0.9,0.5-1.3c-0.3,3,0,6.9,1.1,10.4c1.7,5.7,5.9,12,9.1,11.3c1.9-0.4,3.1-3.5,3.6-4.8
				C148.9-252.7,148.4-255.3,148.2-256.4z"/>
		</g>
		<path d="M91.5-414.2c21.2-14.7,40.4-31,57.2-48.5c10.4-10.8,19.9-21.9,21.9-37.9c1-8.1,0.1-16.4-3-24.9
			c-8.4-19.3-28-30.7-47.6-27.8c-16.8,2.5-26.6,14.7-31.1,22.1c-3.8-7-11.5-17.6-25.1-21.3c-19.6-5.4-41.6,6.2-51.5,27.2
			c-2.5,6.7-3.6,13.5-3.4,20.2c0.7,23.5,18.4,40.4,37.2,58.3c12.7,12.1,26.9,23.1,42.1,32.6l1.7,1.1L91.5-414.2z M62.2-546.6
			c16.3,4.5,23,21.5,23.7,23.4l2.7,7.4l3-7.3c0.1-0.2,8.8-21,29.4-24.1c16.8-2.6,33.7,7.4,41,23.9c2.6,7.4,3.5,14.8,2.6,21.9
			c-1.6,12.9-8.4,22.1-20.2,34.4c-16,16.7-34.4,32.4-54.6,46.5c-14.2-9-27.5-19.4-39.4-30.8C31.7-469,15.6-484.3,15-505.3
			c-0.2-5.9,0.8-12,3-17.7c7.1-15.1,21.6-24.7,36-24.7C56.7-547.7,59.5-547.4,62.2-546.6z"/>
		<path d="M437.6-478.7c-0.6,1.5-2.1,2.4-3.6,2.4c0,0,0,0-0.1,0l-20.2-0.4c-3.6-1-6-2.8-7.1-5.4c-0.7-1.6-0.7-3-0.5-4.2
			c-0.4,0.8-0.9,1.7-1.5,2.5c-2,2.8-4.5,4.3-6.4,5.1l3.9,33.1c0.1,1.2-0.3,2.4-1.2,3.3c2.7-0.9,5-1.7,6.7-2.5c2-0.8,4.3,0,5.2,2
			l6.2,13.4c0.9,2,0.1,4.3-1.8,5.2c-6.6,3.3-23.7,10.7-45.7,10.7c-13.1,0-27.8-2.6-43.1-10.2c-42.1-20.9-56.3-63.8-59.7-76.5
			c-0.3-1.2-0.1-2.5,0.7-3.4c0.8-1,1.9-1.6,3.2-1.6H289c1.7,0,3.2,1.1,3.8,2.7c0.5,1.4,1.2,3.3,2.1,5.5c0.3-1.4,1.3-2.6,2.8-3
			c4.8-1.4,29.3-9.3,34.8-31.9c0.5-2.3,0.9-4.7,1-7.1l-0.7,1c-1.2,1.7-3.4,2.2-5.2,1.2l-8-4.5c-1.6-0.9-2.3-2.7-1.9-4.4
			c8.2-33.7,10.7-34.9,14.3-34.2h0c2,0.4,2.8,2.1,3.4,3.5c0.5,1.3,1.2,2.9,2.7,4.2c0.8,0.7,1.7,1.2,2.7,1.5l0.4,0.2
			c4.1,1.7,11.9,6.1,17.2,15.8c3.5,6.3,4.8,12.6,5,18l12.2-16.1l-0.8-5.6c-0.2-1.2,0.2-2.5,1.1-3.4c0.9-0.9,2.1-1.3,3.4-1.1l9.3,1.3
			l0-2.8c0-1.6,0.9-3,2.3-3.6l8.2-3.7c1.1-0.5,2.3-0.5,3.4,0c1.1,0.5,1.8,1.4,2.1,2.6l2.4,8.9c0.4,1.6-0.2,3.2-1.5,4.2l-2.1,1.5
			l7.5,9.4c0.9,1.1,1.1,2.6,0.6,3.9c-0.5,1.3-1.6,2.3-3,2.5l-3.8,0.7l-10.2,26.4c0.6,1.4,1.5,2.6,2.5,3.7c1.7,1.7,3.4,2.5,4.8,2.8
			l21.9-4.2c2-0.4,5,0.1,7.1,2.5c1.3,1.5,1.8,3.2,1.9,4.4l0,0.5v10.6c0.2,1.8,0.8,3.5,1.5,5.1c0.7,1.3,1.5,2.5,2.4,3.5
			C437.9-481.9,438.2-480.2,437.6-478.7z M343-438.6c-35.7-14.6-51-48.5-55.5-60.7h-12.1c4.3,14.5,18.5,51.4,55.7,69.9
			c36.3,18,69.6,6,81.4,0.4l-4.5-9.7C396.7-434.1,371.2-427,343-438.6z M389.1-439.6c-1.2-0.4-2.2-1.4-2.5-2.7l-9.6-34l-39-20.5
			l-35.6,11.2c-0.6,0.2-1.2,0.2-1.8,0.1c7.9,14.1,21.8,32,44.7,41.3C361.8-437.5,377.2-437.6,389.1-439.6z M429.6-482.5
			c-0.3-0.4-0.5-0.9-0.7-1.3c-1.1-2.2-1.8-4.6-2.2-7.2l0-0.5v-10.8c0,0,0,0,0,0c0,0-0.1-0.5-0.5-0.9c-0.5-0.6-1.3-0.5-1.4-0.5
			l-22.3,4.3c-0.5,0.1-1.1,0.1-1.6,0c-2.2-0.5-5.3-1.7-8.2-4.6c-1.8-1.8-3.2-4-4.2-6.5c-0.4-0.9-0.4-2,0-2.9l11-28.3
			c0.5-1.3,1.7-2.2,3-2.5l1.5-0.3l-6.7-8.3c-0.7-0.8-1-1.9-0.8-3c0.1-1.1,0.7-2.1,1.6-2.7l2.7-2l-1.3-5.1l-4.6,2.1l0,3.9
			c0,1.2-0.5,2.2-1.4,3c-0.9,0.8-2,1.1-3.2,0.9l-8.9-1.3l0.5,3.7c0.1,1.1-0.1,2.1-0.8,3l-16.7,22.1c-1.1,1.4-2.9,2-4.6,1.3
			c-1.7-0.7-2.7-2.3-2.5-4.1c0.5-5.3,0.2-13.3-4.1-21.1c-4.5-8-10.9-11.7-14.3-13.1c-1.6-0.5-3.2-1.4-4.7-2.6
			c-1.3-1.1-2.3-2.3-3-3.5c-1.4,3.6-3.6,10.8-7.2,25.2l4.9,2.8l3.3-4.5c1-1.4,2.6-2,4.3-1.5s2.8,1.8,2.9,3.5
			c0.5,5.3,0.2,10.4-1,15.3c-5.7,23.9-29.5,33.3-37.4,35.8c0,0.3,0.1,0.5,0.2,0.8c0.2,0.8,0.6,1.5,0.9,2.1l35-11
			c0.4-0.1,0.8-0.2,1.2-0.2c0.6,0,1.3,0.1,1.8,0.4l40.6,21.4c1,0.5,1.7,1.4,2,2.4l9.4,33.4c0.7,0,1.3-0.1,1.9-0.3
			c0.6-0.2,1.2-0.4,1.8-0.7l-4-33.4c-0.2-1.9,1-3.8,2.9-4.3c1.1-0.3,3.2-1.1,4.9-3.4c1.6-2.3,2-4.8,2.1-6.5c0-1.5,0.9-2.8,2.2-3.5
			c1.3-0.7,2.9-0.6,4.1,0.3c2,1.4,3.4,3.2,4,5.2c0.7,2.1,0.4,3.9,0.2,5.3c-0.1,1.1-0.2,1.6,0,2.1c0.4,0.9,1.7,1.5,2.8,1.8
			L429.6-482.5z"/>
		<g>
			<path d="M304.1-350c0,45-36.6,81.6-81.6,81.6S140.9-305,140.9-350c0-45,36.6-81.6,81.6-81.6S304.1-395,304.1-350z M298-350
				c0-41.6-33.9-75.5-75.5-75.5c-41.6,0-75.5,33.9-75.5,75.5s33.9,75.5,75.5,75.5C264.1-274.5,298-308.4,298-350z"/>
			<path d="M233.3-376.3c0,7.2-2.9,20.7-9.7,20.9h0c0,0-0.1,0-0.1,0c-1.1,0-2.7-0.4-4.4-2c-3.6-3.6-6.2-11.8-6.1-19.3
				c0.1-7.2,2.8-15.2,6.2-18.5c1.7-1.6,3.3-1.9,4.4-1.9C230.5-397,233.3-383.5,233.3-376.3z M227.2-376.3c0-6.7-2.3-13.1-3.8-14.6
				c-1.5,1.3-4.3,7.2-4.4,14.2c-0.1,7.2,2.8,13.5,4.4,14.9C224.9-363.3,227.2-369.6,227.2-376.3z"/>
			<path d="M218.3-346.3c0.6,0.9,1.1,2.5,0.5,4.9c-1.3,4.9-7.1,11.3-13.6,15c-4.8,2.7-10.8,4.3-15.4,4.3c-1.4,0-2.7-0.1-3.8-0.5
				c-2.3-0.7-3.4-1.9-3.9-2.9c-3.3-6,7-15.2,13.2-18.8C201.6-347.9,214.7-352.1,218.3-346.3L218.3-346.3z M212.9-343
				c-2-0.5-8.7,0.7-14.5,4c-5.8,3.4-10.2,8.5-10.7,10.5c1.9,0.6,8.4,0.1,14.5-3.3C208.5-335.3,212.5-341,212.9-343z"/>
			<path d="M266.6-329.8c0.6,2.3,0,3.9-0.5,4.8c-1.3,2.1-3.8,2.9-6.7,2.9c-5.3,0-12.2-2.6-16.2-4.9c-6.2-3.6-16.5-12.8-13.2-18.8
				c0.5-1,1.6-2.3,4-2.9c4.9-1.4,13.4,0.5,19.8,4.3C259.9-340.8,265.5-334.5,266.6-329.8z M260.7-328.3c-0.4-2-4.1-7.3-10.1-10.9
				c-6.2-3.7-13.1-4.3-15.1-3.7c0.6,2,4.9,7.2,10.7,10.6C252-329,258.7-327.8,260.7-328.3z"/>
		</g>
		<g>
			<path class="st2" d="M459.1-289.8c-0.3,0-0.6-0.2-0.6-0.6c0-6-0.3-59.3,0-70c0.2-7.5,2.2-10.9,3.6-12.3c0.3-0.3,0.1-0.9-0.4-0.9
				l-18.9,0c-0.5,0-0.7,0.5-0.4,0.9c2.6,3.2,3.3,12.1,3.4,12.5c0,0,0,0,0,0v69.7c0,0.3-0.2,0.6-0.6,0.6h-9.5c-0.3,0-0.6-0.2-0.6-0.6
				v-18.2c0-0.1-0.1-0.3-0.1-0.4c-6.4-7.1-14.4-2.6-14.4,3.7v15.5h-0.7v-33.4c0-0.3-0.2-0.6-0.6-0.6h-9.2c-0.3,0-0.6,0.2-0.6,0.6
				v32.8c0,0.3-0.2,0.6-0.6,0.6h-30.4c-0.3,0-0.6-0.2-0.6-0.6v-10.3c0-0.3-0.2-0.6-0.6-0.6h-36.4c-0.3,0-0.6,0.2-0.6,0.6v10.3
				c0,0.3-0.2,0.6-0.6,0.6h-25.1c-0.3,0-0.6,0.2-0.6,0.6v50.1c0,0.3,0.2,0.6,0.6,0.6h149.5c0.3,0,0.6-0.2,0.6-0.6v-50.1
				c0-0.3-0.2-0.6-0.6-0.6H459.1z"/>
			<circle class="st3" cx="389.6" cy="-247.1" r="27.2"/>
			<line class="st2" x1="314.3" y1="-255.2" x2="464.9" y2="-255.2"/>
			<circle class="st3" cx="447.2" cy="-237.5" r="17.7"/>
			<circle class="st3" cx="332" cy="-237.5" r="17.7"/>
			<line class="st3" x1="447.2" y1="-237.5" x2="447.2" y2="-255.2"/>
			<line class="st3" x1="332" y1="-237.5" x2="332" y2="-255.2"/>
			<line class="st3" x1="389.6" y1="-247.1" x2="389.6" y2="-255.2"/>
		</g>
		<path class="st4" d="M555.5-351.1v33.9h-47.4v-108.1c0-0.1,0-0.2-0.1-0.3l-13.3-13.3c-0.1-0.1-0.1-0.2-0.1-0.3v-40.4h-12
			c-0.3,0-0.5-0.2-0.5-0.5c0-0.1,0.1-0.3,0.2-0.4l36.1-26.2v-13.5h-5.2c-0.3,0-0.5-0.2-0.5-0.5c0-0.1,0.1-0.3,0.2-0.4l19-12.7
			l19,12.7c0.2,0.1,0.3,0.4,0.1,0.7c-0.1,0.1-0.2,0.2-0.4,0.2h-5.2v13.6l36.1,26.2c0.2,0.1,0.2,0.4,0.1,0.7
			c-0.1,0.1-0.2,0.2-0.4,0.2H569v40.4c0,0.1,0,0.2-0.1,0.3l-13.3,13.3c-0.1,0.1-0.1,0.2-0.1,0.3V-351.1L555.5-351.1z M491.2-479.7
			H569 M518.3-506.7h27.1 M518.3-520.3h27.1 M494.6-452.6H569"/>
		<path class="st5" d="M553-314.1h-52.1v-109.1l-12.6-12.6c-0.6-0.6-0.9-1.3-0.9-2.1v-37.7h-9.5c-1.7,0-3-1.3-3-3
			c0-0.8,0.3-1.5,0.9-2.1l0.3-0.3l34.8-25.3v-9.7h-2.7c-1.6,0-3-1.3-3-3c0-0.8,0.3-1.5,0.9-2.1l0.4-0.3l20.3-13.6l20.3,13.5
			c0.7,0.4,1.1,1.1,1.3,1.9c0.1,0.7,0,1.5-0.4,2.1l-0.1,0.1c-0.5,0.8-1.5,1.3-2.5,1.3h-2.7v9.7l34.8,25.3c1.3,0.9,1.6,2.6,0.8,4
			l-0.1,0.1c-0.5,0.8-1.5,1.3-2.5,1.3h-9.5v37.7c0,0.8-0.3,1.5-0.9,2.1L553-423.3V-314.1z M505.9-319.1H548v-105
			c0-0.8,0.3-1.5,0.9-2.1l12.6-12.6v-9.9h-69.1v9.9l12.6,12.6c0.6,0.6,0.9,1.3,0.9,2.1V-319.1z M491.8-439.4L491.8-439.4
			C491.8-439.4,491.8-439.4,491.8-439.4z M492.4-453.7h69.1v-21.9h-69.1V-453.7z M563.9-480.7h5.8l-30.1-21.9h-25.3l-30.1,21.9
			H563.9z M516-507.6h21.9v-8.4H516V-507.6z M515-521h22.9v0h0.9l-11.9-7.9L515-521z"/>
	</g>
</pattern>
<g class="st6">
	<pattern  id="SVGID_1_" xlink:href="#Neues_Muster_2" patternTransform="matrix(1 0 0 1 -5.560946e-03 0)"  class="st6">
	</pattern>
	<path class="st7" d="M271.6,1689.1V295.7h342.4v1393.4H271.6z"/>
	<pattern  id="SVGID_2_" xlink:href="#Neues_Muster_2" patternTransform="matrix(1 0 0 1 -5.560946e-03 0)"  class="st6">
	</pattern>
	<path class="st8" d="M710.2,992.4c0-414,318.5-720.6,742.5-720.6c230.9,0,426,77.6,573.3,236.9l-220.9,205
		c-87.6-95.5-197.1-147.3-336.4-147.3c-228.9,0-406.1,169.2-406.1,424c0,258.8,177.2,426,404.1,426c131.4,0,248.8-51.8,342.4-149.3
		l220.9,203c-137.3,163.2-338.4,242.8-565.3,242.8C1036.6,1713,710.2,1406.4,710.2,992.4z"/>
	<pattern  id="SVGID_3_" xlink:href="#Neues_Muster_2" patternTransform="matrix(1 0 0 1 -5.560946e-03 0)"  class="st6">
	</pattern>
	<path class="st9" d="M1981.2,992.4c0-418,316.5-720.6,754.4-720.6c435.9,0,752.4,300.6,752.4,720.6c0,418-316.5,720.6-754.4,720.6
		C2297.7,1713,1981.2,1412.4,1981.2,992.4z M3131.7,992.4c0-252.8-163.2-422-396.1-422c-234.9,0-398.1,169.2-398.1,422
		c0,252.8,163.2,422,398.1,422C2968.5,1414.4,3131.7,1245.2,3131.7,992.4z"/>
	<pattern  id="SVGID_4_" xlink:href="#Neues_Muster_2" patternTransform="matrix(1 0 0 1 -5.560946e-03 0)"  class="st6">
	</pattern>
	<path class="st10" d="M3588.5,1689.1V295.7h290.6l680.8,830v-830h342.4v1393.4h-280.7l-690.7-844v844H3588.5z"/>
</g>
<g>
	<path class="st11" d="M271.6,1689.1V295.7h342.4v1393.4H271.6z"/>
	<path class="st11" d="M710.2,992.4c0-414,318.5-720.6,742.5-720.6c230.9,0,426,77.6,573.3,236.9l-220.9,205
		c-87.6-95.5-197.1-147.3-336.4-147.3c-228.9,0-406.1,169.2-406.1,424c0,258.8,177.2,426,404.1,426c131.4,0,248.8-51.8,342.4-149.3
		l220.9,203c-137.3,163.2-338.4,242.8-565.3,242.8C1036.6,1713,710.2,1406.4,710.2,992.4z"/>
	<path class="st11" d="M1981.2,992.4c0-418,316.5-720.6,754.4-720.6c435.9,0,752.4,300.6,752.4,720.6c0,418-316.5,720.6-754.4,720.6
		C2297.7,1713,1981.2,1412.4,1981.2,992.4z M3131.7,992.4c0-252.8-163.2-422-396.1-422c-234.9,0-398.1,169.2-398.1,422
		c0,252.8,163.2,422,398.1,422C2968.5,1414.4,3131.7,1245.2,3131.7,992.4z"/>
	<path class="st11" d="M3588.5,1689.1V295.7h290.6l680.8,830v-830h342.4v1393.4h-280.7l-690.7-844v844H3588.5z"/>
</g>
</svg>
