<?xml version="1.0" encoding="utf-8"?>
<!-- Generator: Adobe Illustrator 25.0.0, SVG Export Plug-In . SVG Version: 6.00 Build 0)  -->
<svg version="1.1"
	 id="Ebene_1" xmlns:cc="http://creativecommons.org/ns#" xmlns:dc="http://purl.org/dc/elements/1.1/" xmlns:inkscape="http://www.inkscape.org/namespaces/inkscape" xmlns:rdf="http://www.w3.org/1999/02/22-rdf-syntax-ns#" xmlns:sodipodi="http://sodipodi.sourceforge.net/DTD/sodipodi-0.dtd" xmlns:svg="http://www.w3.org/2000/svg"
	 xmlns="http://www.w3.org/2000/svg" xmlns:xlink="http://www.w3.org/1999/xlink" x="0px" y="0px" viewBox="0 0 99.2 99.2"
	 style="enable-background:new 0 0 99.2 99.2;" xml:space="preserve">
<g transform="translate(0,-952.36218)">
	<path d="M49.6,956.7c-13.2,0-24,10.8-24,24c0,12.6,9.7,22.9,22,23.9v38.1c0,1.1,0.9,2,2,2s2-1,2-2v-38.1c12.3-1,22-11.4,22-23.9
		C73.6,967.4,62.8,956.7,49.6,956.7z M49.6,960.7c11.1,0,20,8.9,20,20c0,11.1-8.9,20-20,20s-20-8.9-20-20
		C29.6,969.6,38.5,960.7,49.6,960.7z"/>
</g>
</svg>
