<?xml version="1.0" encoding="utf-8"?>
<!-- Generator: Adobe Illustrator 25.0.0, SVG Export Plug-In . SVG Version: 6.00 Build 0)  -->
<svg version="1.1" id="Ebene_1" xmlns="http://www.w3.org/2000/svg" xmlns:xlink="http://www.w3.org/1999/xlink" x="0px" y="0px"
	 viewBox="0 0 99.2 99.2" style="enable-background:new 0 0 99.2 99.2;" xml:space="preserve">
<path d="M88.4,31.2v12.5h4.7V31.2H88.4z M91.5,42.1H90v-9.4h1.6V42.1z"/>
<rect x="18.1" y="56.7" width="1.6" height="7"/>
<path d="M86.7,21.8H8.8c-1.8,0-3.2,1.4-3.3,3.1v28.6c0,1.8,1.5,3.2,3.3,3.1h20.1c1.8,0,3.2-1.4,3.3-3.2v-4.7c0,0,0.1-0.1,0.2-0.1
	h30.8c0,0,0.1,0,0.1,0l0,0v23.8h26.6V24.9C89.9,23.2,88.4,21.8,86.7,21.8z M88.4,71H64.9V48.8c0-0.9-0.8-1.6-1.7-1.6c0,0,0,0,0,0
	H32.3c-0.9,0-1.7,0.7-1.7,1.6c0,0,0,0,0,0v4.8c0,0.9-0.8,1.6-1.7,1.6c0,0,0,0,0,0H8.8c-0.9,0-1.7-0.7-1.7-1.6c0,0,0,0,0,0V24.9
	c0-0.9,0.8-1.6,1.7-1.6c0,0,0,0,0,0h77.8c0.9,0,1.7,0.7,1.7,1.6c0,0,0,0,0,0V71z"/>
<path d="M41,17.9h-6.7c-2,0-3.7,1.6-3.7,3.7v1.8h14.1v-1.8C44.6,19.5,43,17.9,41,17.9z M43.1,21.8H32.1v-0.2c0-1.2,1-2.1,2.1-2.1H41
	c1.2,0,2.1,0.9,2.1,2.1v0L43.1,21.8z"/>
<path d="M20.3,17.9H19c-2,0-3.7,1.6-3.7,3.7c0,0,0,0,0,0v1.8h8.6v-1.8C23.9,19.5,22.3,17.9,20.3,17.9z M22.3,21.8h-5.4v-0.2
	c0-1.2,1-2.1,2.1-2.1h1.2c1.1,0,2,0.9,2.1,2.1V21.8z"/>
<path d="M69.8,15.5h-0.3c-1.4,0-2.6,1.2-2.6,2.6v5.2h5.4v-5.2C72.3,16.7,71.2,15.6,69.8,15.5z M70.8,21.8h-2.3v-3.7c0-0.6,0.4-1,1-1
	h0.3c0.6,0,1,0.4,1,1L70.8,21.8z"/>
<path d="M0.9,71v12.5h89.1V71H0.9z M88.4,81.9H2.5v-9.4h85.9V81.9z"/>
<path d="M74.3,28c-3.9,0-7,3.1-7,7s3.1,7,7,7s7-3.1,7-7S78.2,28,74.3,28L74.3,28z M74.3,40.5c-3,0-5.5-2.4-5.5-5.5s2.4-5.5,5.5-5.5
	s5.5,2.4,5.5,5.5S77.4,40.5,74.3,40.5L74.3,40.5z"/>
<path d="M79,47.6c-2.4,0-4.3,1.9-4.3,4.3s1.9,4.3,4.3,4.3s4.3-1.9,4.3-4.3S81.4,47.6,79,47.6L79,47.6z M79,54.6
	c-1.5,0-2.7-1.2-2.7-2.7s1.2-2.7,2.7-2.7c1.5,0,2.7,1.2,2.7,2.7C81.8,53.3,80.6,54.6,79,54.6C79,54.6,79,54.6,79,54.6L79,54.6z"/>
<path d="M96.2,21.8h-1.6c-1.7,0-3.1,1.4-3.1,3.1v25c0,1.7,1.4,3.1,3.1,3.1h1.6c1.7,0,3.1-1.4,3.1-3.1v-25
	C99.3,23.2,97.9,21.8,96.2,21.8z M97.8,49.9c0,0.9-0.7,1.6-1.6,1.6h-1.6c-0.9,0-1.6-0.7-1.6-1.6v-25c0-0.9,0.7-1.6,1.6-1.6h1.6
	c0.9,0,1.6,0.7,1.6,1.6V49.9z"/>
</svg>
